{"title":"Pinocchio.2008.DvDRiP.XViD.Optional Nordic_Sub.avi","uid":5490561,"size":1470977108,"categoryP":"video","categoryS":"movies","magnet":"?xt=urn:btih:7e5370083ef02906d167ee2a3a51927b765375b7&amp;dn=Pinocchio.2008.DvDRiP.XViD.Optional+Nordic_Sub.avi&amp;tr=udp%3A%2F%2Ftracker.openbittorrent.com%3A80&amp;tr=udp%3A%2F%2Fopen.demonii.com%3A1337&amp;tr=udp%3A%2F%2Ftracker.coppersurfer.tk%3A6969&amp;tr=udp%3A%2F%2Fexodus.desync.com%3A6969","seeders":1,"leechers":0,"uploader":"Zen_Bud","files":-1,"time":1270974686,"description":"General\nComplete name                    : Pinocchio.2008.avi\nFormat                           : AVI\nFile size                        : 1.37 GiB\nDuration                         : 2h 58mn\nOverall bit rate                 : 1 096 Kbps\n\nVideo\nID                               : 0\nFormat                           : MPEG-4 Visual\nCodec ID/Hint                    : XviD\nDuration                         : 2h 58mn\nBit rate                         : 955 Kbps\nWidth                            : 718 pixels\nHeight                           : 576 pixels\nDisplay aspect ratio             : 16:9\nFrame rate                       : 25.000 fps\nResolution                       : 8 bits\nColorimetry                      : 4:2:0\nScan type                        : Progressive\nBits/(Pixel*Frame)               : 0.092\nStream size                      : 1.19 GiB (87%)\nWriting library                  : XviD 1.1.2 (UTC 2006-11-01)\n\nAudio\nID                               : 1\nFormat                           : MPEG Audio\nFormat_Settings_ModeExtension    : MS Stereo\nCodec ID/Hint                    : MP3\nDuration                         : 2h 58mn\nBit rate mode                    : Constant\nBit rate                         : 128 Kbps\nChannel(s)                       : 2 channels\nSampling rate                    : 48.0 KHz\nStream size                      : 164 MiB (12%)\n\n\n\nGeneral..........................: Optional subtitles in .srt\n\nComplete name                    : Pinocchio.2008.Dan.srt\nFile size                        : 130 KiB\n\n\nComplete name                    : Pinocchio.2008.Fin.srt\nFile size                        : 133 KiB\n\n\nComplete name                    : Pinocchio.2008.Nor.srt\nFile size                        : 130 KiB\n\nComplete name                    : Pinocchio.2008.Swe.srt\nFile size                        : 132 KiB","torrent":{"xt":"urn:btih:7e5370083ef02906d167ee2a3a51927b765375b7","amp;dn":"Pinocchio.2008.DvDRiP.XViD.Optional+Nordic_Sub.avi","amp;tr":["udp%3A%2F%2Ftracker.openbittorrent.com%3A80","udp%3A%2F%2Fopen.demonii.com%3A1337","udp%3A%2F%2Ftracker.coppersurfer.tk%3A6969","udp%3A%2F%2Fexodus.desync.com%3A6969"],"infoHash":"7e5370083ef02906d167ee2a3a51927b765375b7","infoHashBuffer":{"type":"Buffer","data":[126,83,112,8,62,240,41,6,209,103,238,42,58,81,146,123,118,83,117,183]},"announce":[],"urlList":[]}}